<?xml version="1.0" encoding="UTF-8"?>
<!-- Generator: Adobe Illustrator 16.2.1, SVG Export Plug-In . SVG Version: 6.00 Build 0)  -->
<!DOCTYPE svg PUBLIC "-//W3C//DTD SVG 1.1//EN" "http://www.w3.org/Graphics/SVG/1.1/DTD/svg11.dtd">
<svg version="1.1" id="Ebene_1" xmlns="http://www.w3.org/2000/svg" xmlns:xlink="http://www.w3.org/1999/xlink" x="0px" y="0px" width="340px" height="125px" viewBox="0 0 340 125" enable-background="new 0 0 340 125" xml:space="preserve">
<g>
	<path d="M30.732,84.063c-0.764-0.941-1.146-1.785-1.146-2.533c0-0.75,0.632-1.742,1.896-2.978c0.735-0.706,1.514-1.057,2.336-1.057   c0.823,0,1.97,0.732,3.439,2.203c0.412,0.499,0.999,0.977,1.764,1.435c0.764,0.454,1.469,0.682,2.116,0.682   c2.733,0,4.099-1.117,4.099-3.35c0-0.677-0.374-1.242-1.123-1.697c-0.75-0.456-1.684-0.786-2.8-0.992   c-1.117-0.205-2.322-0.537-3.615-0.992c-1.293-0.455-2.499-0.992-3.615-1.609c-1.118-0.616-2.05-1.594-2.799-2.931   c-0.75-1.338-1.124-2.948-1.124-4.827c0-2.586,0.962-4.844,2.888-6.767c1.924-1.925,4.547-2.889,7.869-2.889   c1.763,0,3.372,0.228,4.827,0.684c1.455,0.457,2.461,0.918,3.02,1.389l1.103,0.837c0.91,0.852,1.366,1.572,1.366,2.16   c0,0.589-0.353,1.396-1.058,2.426c-1,1.469-2.028,2.204-3.086,2.204c-0.617,0-1.382-0.293-2.292-0.881   c-0.088-0.061-0.258-0.206-0.508-0.442c-0.25-0.234-0.478-0.425-0.683-0.572c-0.617-0.381-1.403-0.572-2.359-0.572   c-0.955,0-1.749,0.227-2.38,0.682c-0.633,0.457-0.947,1.089-0.947,1.896c0,0.811,0.374,1.462,1.123,1.963   c0.75,0.499,1.683,0.837,2.8,1.013c1.116,0.178,2.336,0.45,3.659,0.816c1.322,0.369,2.542,0.814,3.658,1.346   c1.117,0.528,2.05,1.447,2.8,2.755c0.749,1.308,1.123,2.916,1.123,4.826s-0.382,3.593-1.146,5.049   c-0.764,1.454-1.763,2.579-2.998,3.372c-2.38,1.559-4.923,2.336-7.627,2.336c-1.381,0-2.689-0.169-3.924-0.507   c-1.233-0.339-2.233-0.756-2.998-1.256c-1.558-0.939-2.644-1.853-3.261-2.734L30.732,84.063z"/>
	<path d="M64.325,60.171c0-0.676,0.022-1.183,0.066-1.521c0.044-0.338,0.183-0.728,0.418-1.169c0.411-0.793,1.558-1.19,3.438-1.19   c2.057,0,3.277,0.544,3.659,1.632c0.148,0.499,0.221,1.264,0.221,2.292v24.51c0,0.705-0.021,1.22-0.066,1.542   c-0.044,0.325-0.184,0.707-0.419,1.147c-0.412,0.793-1.558,1.19-3.438,1.19c-2.058,0-3.263-0.559-3.616-1.676   c-0.175-0.47-0.263-1.218-0.263-2.248V60.171z"/>
	<path d="M98.754,72.381c4.497,4.321,7.686,7.569,9.566,9.742c0.971,1.088,1.456,2.007,1.456,2.756c0,0.75-0.588,1.632-1.765,2.646   c-1.175,1.014-2.137,1.521-2.887,1.521c-0.75,0-1.653-0.616-2.711-1.852l-9.699-11.065v8.597c0,0.705-0.021,1.22-0.065,1.542   c-0.044,0.325-0.185,0.707-0.419,1.147c-0.412,0.793-1.558,1.19-3.438,1.19c-2.058,0-3.262-0.558-3.614-1.676   c-0.177-0.47-0.265-1.218-0.265-2.248v-24.51c0-0.676,0.022-1.183,0.066-1.521c0.044-0.338,0.183-0.728,0.418-1.169   c0.411-0.793,1.558-1.19,3.439-1.19c2.057,0,3.276,0.544,3.659,1.632c0.147,0.499,0.22,1.264,0.22,2.292v8.419   c3.997-4.497,7.23-8.185,9.699-11.064c1.028-1.206,1.924-1.808,2.689-1.808c0.764,0,1.734,0.508,2.909,1.521   c1.176,1.015,1.765,1.895,1.765,2.645s-0.441,1.64-1.323,2.667c-1.705,1.97-4.35,4.673-7.935,8.112L98.754,72.381z"/>
	<path d="M143.587,56.908c1.44,1,2.161,1.969,2.161,2.91c0,0.558-0.339,1.338-1.014,2.336l-9.523,14.239v8.42   c0,0.678-0.021,1.184-0.066,1.521c-0.044,0.34-0.184,0.728-0.419,1.17c-0.236,0.44-0.632,0.748-1.19,0.926   c-0.559,0.176-1.308,0.265-2.249,0.265c-0.94,0-1.69-0.089-2.249-0.265c-0.558-0.178-0.955-0.491-1.189-0.948   c-0.236-0.456-0.375-0.853-0.419-1.191c-0.044-0.336-0.066-0.859-0.066-1.564v-8.332l-9.522-14.239   c-0.678-0.998-1.014-1.778-1.014-2.336c0-0.94,0.646-1.844,1.94-2.711c1.292-0.866,2.219-1.3,2.777-1.3   c0.558,0,1,0.117,1.323,0.352c0.5,0.325,1.028,0.926,1.587,1.808l6.833,10.933l6.833-10.933c0.558-0.882,1.042-1.461,1.454-1.742   c0.412-0.277,0.889-0.417,1.433-0.417S142.412,56.173,143.587,56.908"/>
	<path d="M177.752,62.814c0.766,1.559,1.146,3.293,1.146,5.202c0,1.912-0.381,3.638-1.146,5.181   c-0.765,1.542-1.748,2.771-2.952,3.681c-2.441,1.882-4.968,2.821-7.583,2.821h-5.511v4.981c0,0.678-0.021,1.184-0.066,1.521   c-0.043,0.34-0.183,0.728-0.417,1.17c-0.412,0.791-1.559,1.189-3.439,1.189c-2.058,0-3.262-0.544-3.615-1.632   c-0.176-0.499-0.265-1.263-0.265-2.292V60.171c0-0.676,0.023-1.183,0.066-1.521c0.044-0.338,0.184-0.728,0.419-1.169   c0.411-0.793,1.558-1.19,3.438-1.19h9.435c2.586,0,5.098,0.94,7.54,2.821C176.004,60.023,176.987,61.257,177.752,62.814    M169.862,70.926c0.852-0.646,1.279-1.615,1.279-2.909c0-1.293-0.427-2.27-1.279-2.932c-0.853-0.661-1.734-0.991-2.646-0.991   h-5.511v7.802h5.555C168.142,71.896,169.009,71.574,169.862,70.926"/>
	<path d="M202.484,58.584l11.902,24.598c0.499,0.999,0.75,1.749,0.75,2.248c0,1.059-0.854,2.014-2.557,2.866   c-1,0.5-1.786,0.749-2.36,0.749c-0.572,0-1.043-0.132-1.409-0.397c-0.368-0.265-0.633-0.543-0.794-0.837   c-0.163-0.293-0.391-0.734-0.684-1.322l-2.292-4.762h-12.212l-2.292,4.762c-0.295,0.588-0.522,1.015-0.684,1.279   c-0.161,0.263-0.426,0.536-0.795,0.813c-0.365,0.28-0.836,0.42-1.408,0.42c-0.574,0-1.361-0.249-2.36-0.75   c-1.705-0.822-2.557-1.763-2.557-2.821c0-0.499,0.249-1.249,0.75-2.248l11.903-24.643c0.323-0.676,0.815-1.219,1.477-1.631   s1.358-0.616,2.094-0.616C200.544,56.292,201.719,57.055,202.484,58.584 M198.913,69.163l-2.91,6.041h5.863L198.913,69.163z"/>
	<path d="M247.141,83.139c0.442,1.058,0.661,1.823,0.661,2.291c0,1.117-0.91,2.058-2.731,2.821   c-0.941,0.412-1.699,0.617-2.271,0.617c-0.573,0-1.043-0.139-1.412-0.419c-0.365-0.277-0.638-0.564-0.813-0.859   c-0.293-0.558-1.44-3.219-3.439-7.978l-1.366,0.087h-5.555v4.981c0,0.678-0.021,1.184-0.066,1.521   c-0.043,0.34-0.184,0.728-0.419,1.17c-0.411,0.793-1.557,1.189-3.438,1.189c-2.06,0-3.263-0.544-3.615-1.632   c-0.177-0.499-0.266-1.263-0.266-2.292V60.171c0-0.676,0.023-1.183,0.066-1.521c0.046-0.338,0.184-0.728,0.419-1.169   c0.412-0.793,1.558-1.19,3.438-1.19h9.522c2.587,0,5.1,0.94,7.538,2.821c1.176,0.912,2.146,2.146,2.91,3.703   c0.764,1.559,1.146,3.293,1.146,5.202c0,3.322-1.102,6.056-3.306,8.2C244.79,77.775,245.789,80.083,247.141,83.139 M230.213,71.896   h5.643c0.853,0,1.703-0.321,2.558-0.97c0.852-0.646,1.278-1.615,1.278-2.909c0-1.293-0.427-2.27-1.278-2.932   c-0.854-0.661-1.734-0.991-2.646-0.991h-5.555V71.896z"/>
	<path d="M272.445,72.381c4.496,4.321,7.686,7.569,9.567,9.742c0.968,1.088,1.455,2.007,1.455,2.756c0,0.75-0.59,1.632-1.765,2.646   s-2.137,1.521-2.886,1.521c-0.752,0-1.656-0.616-2.711-1.852l-9.7-11.065v8.597c0,0.705-0.022,1.22-0.066,1.542   c-0.043,0.325-0.184,0.707-0.419,1.147c-0.411,0.793-1.557,1.19-3.438,1.19c-2.059,0-3.263-0.558-3.616-1.676   c-0.176-0.47-0.265-1.218-0.265-2.248v-24.51c0-0.676,0.022-1.183,0.066-1.521c0.043-0.338,0.184-0.728,0.419-1.169   c0.41-0.793,1.558-1.19,3.437-1.19c2.06,0,3.276,0.544,3.661,1.632c0.148,0.499,0.221,1.264,0.221,2.292v8.419   c3.997-4.497,7.229-8.185,9.7-11.064c1.028-1.206,1.924-1.808,2.688-1.808c0.763,0,1.734,0.508,2.909,1.521   c1.175,1.015,1.765,1.895,1.765,2.645s-0.442,1.64-1.322,2.667c-1.705,1.97-4.351,4.673-7.937,8.112L272.445,72.381z"/>
	<path d="M339.157,75.74c-1.047,1.195-1.9,2.579-2.998,3.723c-1.596-1.474-2.63-4.001-2.756-6.662   C334.374,74.741,337.951,74.041,339.157,75.74"/>
	<path d="M339.157,75.74c-1.047,1.195-1.9,2.579-2.998,3.723c-1.596-1.474-2.63-4.001-2.756-6.662   C334.374,74.741,337.951,74.041,339.157,75.74z"/>
	<path d="M259.134,25.508c10.984-3.655,29.505-5.761,38.507,0.23c0.055-3.251-1.596-4.843-3.339-6.296   c6.372,1.675,13.265,2.825,13.797,10.423c2.374-2.872,4.19-6.296,5.48-10.24c1.658,7.09,0.896,16.641-2.696,21.1   c0.934-3.066,1.854-6.201,1.012-10.028c-1.56,1.943-3.483,3.675-6.49,4.194c0.786-4.79-1.535-9.302-4.661-10.843   c0.09,2.792-0.457,4.859-1.579,6.557c-3.579-2.622-8.266-4.876-13.493-5.686c-11.302-1.75-22.737,1.787-31.025,4.593   c-9.244,3.131-16.501,7.876-23.34,12.756C238.816,35.471,248.012,29.208,259.134,25.508"/>
	<path d="M259.134,25.508c10.984-3.655,29.505-5.761,38.507,0.23c0.055-3.251-1.596-4.843-3.339-6.296   c6.372,1.675,13.265,2.825,13.797,10.423c2.374-2.872,4.19-6.296,5.48-10.24c1.658,7.09,0.896,16.641-2.696,21.1   c0.934-3.066,1.854-6.201,1.012-10.028c-1.56,1.943-3.483,3.675-6.49,4.194c0.786-4.79-1.535-9.302-4.661-10.843   c0.09,2.792-0.457,4.859-1.579,6.557c-3.579-2.622-8.266-4.876-13.493-5.686c-11.302-1.75-22.737,1.787-31.025,4.593   c-9.244,3.131-16.501,7.876-23.34,12.756C238.816,35.471,248.012,29.208,259.134,25.508z"/>
	<path d="M325.136,59.347c-0.709-0.69-1.725-3.35-2.573-4.981c-2.286-4.392-4.547-6.69-9.176-10.319   c8.569,4.365,9.342,8.511,13.412,13.722c4.025,5.147,10.545,8.923,13.061,15.258C336.382,67.172,326.045,60.228,325.136,59.347"/>
	<path d="M325.136,59.347c-0.709-0.69-1.725-3.35-2.573-4.981c-2.286-4.392-4.547-6.69-9.176-10.319   c8.569,4.365,9.342,8.511,13.412,13.722c4.025,5.147,10.545,8.923,13.061,15.258C336.382,67.172,326.045,60.228,325.136,59.347z"/>
	<path d="M308.366,124.792c0.003-0.013,0.006-0.028,0.009-0.042c-0.042,0.074-0.075,0.152-0.117,0.227L308.366,124.792z"/>
	<path d="M308.366,124.792c0.003-0.013,0.006-0.028,0.009-0.042c-0.042,0.074-0.075,0.152-0.117,0.227L308.366,124.792z"/>
	<path d="M317.567,67.671c-3.111,4.626-8.074,7.729-12.673,8.214c-2.883-5.849-3.476-15.385-1.374-22.473   c-1.396,4.339-2.651,8.269-2.611,13.834c0.083,12.277,6.76,21.468,8.082,33.031c0.718,6.269,0.551,18.854-0.619,24.475   c7.355-12.914,2.42-34.304-2.646-46.255C311.242,76.688,315.271,74.263,317.567,67.671"/>
	<path d="M317.567,67.671c-3.111,4.626-8.074,7.729-12.673,8.214c-2.883-5.849-3.476-15.385-1.374-22.473   c-1.396,4.339-2.651,8.269-2.611,13.834c0.083,12.277,6.76,21.468,8.082,33.031c0.718,6.269,0.551,18.854-0.619,24.475   c7.355-12.914,2.42-34.304-2.646-46.255C311.242,76.688,315.271,74.263,317.567,67.671z"/>
	<path d="M321.936,61.31c-0.875-1.127-1.906-2.617-2.495-4.318c-3.198-0.139-5.606,1.339-7.566,2.771   c0.875-0.332,1.731-0.526,2.567-0.615c0.514,2.608,1.909,2.616,4.055,2.298C320.171,61.199,320.517,61.429,321.936,61.31    M314.444,59.147c1.227-0.132,2.401-0.03,3.498,0.239c-0.261,0.308-0.567,0.608-0.606,0.868   C316.092,60.118,314.961,59.881,314.444,59.147"/>
	<path d="M332.246,88.604c-0.821,0.754-2.083,1.369-3.181,1.55c-3.493,0.575-10.555-1.647-12.304,1.024   c0.078-0.082,0.178-0.148,0.295-0.201c-0.187,0.176-0.358,0.372-0.511,0.607c0.609-0.934,2.981-0.37,4.072-0.118   c3.625,0.844,5.414,3.668,8.564,0.979l-0.343-0.986C330.304,91.062,331.533,90.217,332.246,88.604"/>
	<path d="M332.246,88.604c-0.821,0.754-2.083,1.369-3.181,1.55c-3.493,0.575-10.555-1.647-12.304,1.024   c0.078-0.082,0.178-0.148,0.295-0.201c-0.187,0.176-0.358,0.372-0.511,0.607c0.609-0.934,2.981-0.37,4.072-0.118   c3.625,0.844,5.414,3.668,8.564,0.979l-0.343-0.986C330.304,91.062,331.533,90.217,332.246,88.604z"/>
	<path d="M316.546,91.585c0.06-0.147,0.132-0.281,0.216-0.406C316.656,91.287,316.581,91.418,316.546,91.585"/>
	<path d="M316.546,91.585c0.06-0.147,0.132-0.281,0.216-0.406C316.656,91.287,316.581,91.418,316.546,91.585z"/>
	<path d="M42.661,19.919c0.268,5.957,1.241,12.193,4.592,16.973c2.325,3.315,5.452,4.223,8.337,7.317   C51.423,38.753,43.314,28.11,42.661,19.919"/>
	<path d="M42.661,19.919c0.268,5.957,1.241,12.193,4.592,16.973c2.325,3.315,5.452,4.223,8.337,7.317   C51.423,38.753,43.314,28.11,42.661,19.919z"/>
	<path d="M20.706,28.721c-0.417-0.18-1.807-2.188-2.373-3.377c0,1.756,1.851,5.748,2.699,6.719c0.887-0.96,2.038-5.642,2.283-6.973   C22.77,25.442,21.348,28.467,20.706,28.721"/>
	<path d="M36.172,45.232c-5.113-2.097-12.401-2.121-18.263,0.36c-2.459,1.179-3.493,2.488-3.932,5.906   c-3.571-4.963-5.959-10.079-7.646-16.423c1.179,9.771,4.043,13.044,7.193,20.727c1.063,2.594,4.87,8.72,7.401,10.255   c-3.098-4.239-6.679-11.445-3.078-17.022C20.048,45.708,31.272,44.014,36.172,45.232"/>
	<path d="M36.172,45.232c-5.113-2.097-12.401-2.121-18.263,0.36c-2.459,1.179-3.493,2.488-3.932,5.906   c-3.571-4.963-5.959-10.079-7.646-16.423c1.179,9.771,4.043,13.044,7.193,20.727c1.063,2.594,4.87,8.72,7.401,10.255   c-3.098-4.239-6.679-11.445-3.078-17.022C20.048,45.708,31.272,44.014,36.172,45.232z"/>
	<path d="M40.293,15.688c-0.649-1.657-1.859-3.492-3.544-5.007l0.194-0.583c0.149-0.374,0.34-0.737,0.56-1.088   c0.002,0.004,0.005,0.008,0.008,0.013c0-0.01,0.002-0.021,0.003-0.031c0.714-1.141,1.771-2.145,3.072-2.833   c-0.72,0.017-1.515,0.061-2.342,0.14c0.521-1.078,1.302-2.082,2.298-2.897c-0.725,0.165-1.518,0.371-2.338,0.617   c0.044-0.174,0.096-0.348,0.152-0.521l1.085-2.268C39.722,0.8,40.039,0.388,40.394,0c-3.26,1.256-7.726,3.458-9.993,6.641   c-0.147,0.169-0.291,0.341-0.434,0.515c-0.109-0.033-0.217-0.066-0.323-0.098C23.152,5.192,16.797,5.36,11.769,7.264   c-0.107-0.111-0.215-0.22-0.323-0.329C8.955,3.924,4.341,2.049,1,1.032c0.382,0.36,0.727,0.749,1.037,1.156l1.247,2.184   c0.067,0.169,0.131,0.339,0.188,0.51C2.637,4.694,1.831,4.546,1.096,4.434c1.052,0.741,1.903,1.687,2.5,2.723   C2.766,7.138,1.97,7.152,1.25,7.186c1.347,0.593,2.474,1.519,3.268,2.604C4.52,9.801,4.522,9.812,4.524,9.823   C4.526,9.817,4.528,9.814,4.531,9.81c0.244,0.335,0.46,0.683,0.637,1.044l0.217,0.521c-2.41,2.523-3.851,5.844-3.906,9.859   c-0.002,0.118-0.001,0.235-0.001,0.353c0.001,0.134-0.006,0.262-0.001,0.397c0.002-0.005,0.004-0.01,0.008-0.017   c0.263,9.182,9.408,15.784,18.388,17.61c-8.188-3.364-19.327-10.514-15.39-23.074c1.282-2.317,1.851-3.014,4.937-3.014   c2.997,0,5.631,1.588,7.369,2.954c0.833,0.977,1.391,1.417,0.982,0.253c-0.409-1.163-1-2.431-1.736-3.716   c-0.037-0.084-0.099-0.191-0.189-0.325c-0.8-1.357-1.759-2.726-2.837-4.009c4.017-1.572,9.019-1.526,15.674,0.007   c0.04,0.009,0.081,0.02,0.121,0.03c-0.915,1.29-1.716,2.645-2.377,3.979c-0.081,0.14-0.134,0.252-0.165,0.337   c-0.641,1.336-1.14,2.642-1.463,3.833c-0.353,1.295,0.3,0.613,1.169-0.61c1.651-1.67,4.108-3.745,6.929-3.19   c3.093,0.608,4.83,1.144,5.56,3.472c3.937,12.56-7.202,19.709-15.391,23.074C33.98,37.356,45.145,28.079,40.293,15.688"/>
	<path d="M40.293,15.688c-0.649-1.657-1.859-3.492-3.544-5.007l0.194-0.583c0.149-0.374,0.34-0.737,0.56-1.088   c0.002,0.004,0.005,0.008,0.008,0.013c0-0.01,0.002-0.021,0.003-0.031c0.714-1.141,1.771-2.145,3.072-2.833   c-0.72,0.017-1.515,0.061-2.342,0.14c0.521-1.078,1.302-2.082,2.298-2.897c-0.725,0.165-1.518,0.371-2.338,0.617   c0.044-0.174,0.096-0.348,0.152-0.521l1.085-2.268C39.722,0.8,40.039,0.388,40.394,0c-3.26,1.256-7.726,3.458-9.993,6.641   c-0.147,0.169-0.291,0.341-0.434,0.515c-0.109-0.033-0.217-0.066-0.323-0.098C23.152,5.192,16.797,5.36,11.769,7.264   c-0.107-0.111-0.215-0.22-0.323-0.329C8.955,3.924,4.341,2.049,1,1.032c0.382,0.36,0.727,0.749,1.037,1.156l1.247,2.184   c0.067,0.169,0.131,0.339,0.188,0.51C2.637,4.694,1.831,4.546,1.096,4.434c1.052,0.741,1.903,1.687,2.5,2.723   C2.766,7.138,1.97,7.152,1.25,7.186c1.347,0.593,2.474,1.519,3.268,2.604C4.52,9.801,4.522,9.812,4.524,9.823   C4.526,9.817,4.528,9.814,4.531,9.81c0.244,0.335,0.46,0.683,0.637,1.044l0.217,0.521c-2.41,2.523-3.851,5.844-3.906,9.859   c-0.002,0.118-0.001,0.235-0.001,0.353c0.001,0.134-0.006,0.262-0.001,0.397c0.002-0.005,0.004-0.01,0.008-0.017   c0.263,9.182,9.408,15.784,18.388,17.61c-8.188-3.364-19.327-10.514-15.39-23.074c1.282-2.317,1.851-3.014,4.937-3.014   c2.997,0,5.631,1.588,7.369,2.954c0.833,0.977,1.391,1.417,0.982,0.253c-0.409-1.163-1-2.431-1.736-3.716   c-0.037-0.084-0.099-0.191-0.189-0.325c-0.8-1.357-1.759-2.726-2.837-4.009c4.017-1.572,9.019-1.526,15.674,0.007   c0.04,0.009,0.081,0.02,0.121,0.03c-0.915,1.29-1.716,2.645-2.377,3.979c-0.081,0.14-0.134,0.252-0.165,0.337   c-0.641,1.336-1.14,2.642-1.463,3.833c-0.353,1.295,0.3,0.613,1.169-0.61c1.651-1.67,4.108-3.745,6.929-3.19   c3.093,0.608,4.83,1.144,5.56,3.472c3.937,12.56-7.202,19.709-15.391,23.074C33.98,37.356,45.145,28.079,40.293,15.688z"/>
	<path d="M11.449,18.601c-4.165,2.142-1.152,8,3.013,5.859C18.625,22.318,15.613,16.459,11.449,18.601 M13.894,22.141   c-1.824,1.313-3.703-1.298-1.878-2.611C13.839,18.217,15.718,20.829,13.894,22.141"/>
	<path d="M28.978,18.601c-4.165,2.142-1.152,8,3.013,5.859C36.154,22.318,33.142,16.459,28.978,18.601 M30.688,22.141   c-1.824,1.313-3.704-1.298-1.88-2.611C30.631,18.217,32.51,20.829,30.688,22.141"/>
</g>
</svg>