<?xml version="1.0" encoding="UTF-8" standalone="no"?>
<svg
   xmlns:dc="http://purl.org/dc/elements/1.1/"
   xmlns:cc="http://creativecommons.org/ns#"
   xmlns:rdf="http://www.w3.org/1999/02/22-rdf-syntax-ns#"
   xmlns:svg="http://www.w3.org/2000/svg"
   xmlns="http://www.w3.org/2000/svg"
   xml:space="preserve"
   style="enable-background:new 0 0 602.6 184;"
   viewBox="0 0 602.6 184"
   y="0px"
   x="0px"
   id="Layer_1"
   version="1.1"><defs
     id="defs105" /><path
     style="fill:#000000;fill-opacity:1"
     d="m 182.1,123 0,0 c 0,0 1.5,-1 3.2,-2.2 l 0.4,-0.3 -0.4,0.3 c -1.8,1.3 -3.2,2.2 -3.2,2.2 z"
     id="path5" /><path
     style="fill:#000000;fill-opacity:1"
     d="m 377.7,91.1 c 0,-1.1 0,-2 0,-2.6 l 0,-0.5 -8.5,0 c 0,9.8 -0.7,15 -7.8,15 -6.7,0 -7,-5 -7,-13.4 0,-0.5 0,-1.1 0,-1.6 l -8.5,0 c 0,0 0,6.3 0,9 l 0,1 c 0.3,8.6 7.5,13 15.4,13 7.9,0 16,-4.1 16.3,-13 l 0,-0.4 0,-0.6 c 0,-2.2 0,-6.6 0,-8.3 0.1,0.5 0.1,1.4 0.1,2.4 z"
     id="path7" /><path
     style="fill:#000000;fill-opacity:1"
     d="m 362.2,82.9 c 1.2,0 2.3,0.2 3.4,0.7 l 11.2,0 c -2.2,-5.7 -8.1,-8.6 -14.6,-8.6 -6.5,0 -13.1,2.8 -15.4,8.6 l 11.8,0 c 1.1,-0.5 2.4,-0.8 3.6,-0.7 z"
     id="path9" /><path
     style="fill:#000000;fill-opacity:1"
     d="m 193.2,96.8 c -2.1,-1.7 -4.5,-3 -7,-3.9 -4.9,-1.8 -15.3,-3.5 -22.5,-4.1 -6.7,-0.6 -23.7,-1.7 -30.1,-1.9 -6,-0.2 -38.5,-1 -41.1,-1 l -1.7,0 c -3.3,0 -13.2,0.1 -13.5,-0.5 -0.2,-1 1.8,-2.3 6.3,-3.7 5.6,-1.8 40.4,-11.6 49,-13.8 9,-2.3 26.8,-7.3 30.8,-8.6 4,-1.3 11,-2.7 11,-2.7 l 0.2,0.2 c 0.5,1 1.2,1.9 2.1,2.7 3,2.2 6.4,3.6 10,4.3 0,0 -1.3,-5.5 1.9,-7.9 0,0 10.8,8.5 14.6,9 0.4,0 1.3,0 2,0 0.5,0 1.1,0.1 1.6,0.3 0.6,0.2 1.2,0.2 1.8,0.2 0.5,0 1.1,0.1 1.5,0.4 0.1,0.2 3.6,3.9 10.3,3.4 l 0.2,0.1 c 1.1,0.6 2.5,0.8 3.8,0.5 0.5,-0.1 0.8,-0.2 0.4,-0.3 -0.3,0 -0.5,-0.1 -0.8,-0.2 1.1,-0.1 2.1,-0.5 3,-1.1 0.4,-0.3 0.6,-0.5 0.2,-0.4 -0.1,0 -1.3,0.3 -2.6,0.5 2.3,-0.9 3.4,-1.6 3.9,-2.4 0.2,-0.4 0.8,-1.5 0,-0.9 -1.2,1 -2.7,1.6 -4.3,1.7 0.9,-0.4 1.8,-1 2.5,-1.6 0.2,-0.3 0.8,-0.9 0.3,-0.7 -1.6,0.9 -3.5,1.5 -5.3,1.7 -1.9,0.2 -9.6,-5 -11,-6 -0.7,-0.5 -10.3,-7.7 -10.8,-9.6 -0.5,-1.9 1.7,-3.1 3.5,-3.3 1.8,-0.2 1.9,0.6 1.9,0.6 0.5,-1.2 -0.1,-2.6 -1.4,-3.1 -2.2,-0.8 -6.2,0.2 -7.1,0.1 -0.9,-0.1 -2.2,-2.7 -3.2,-4.8 l -1,-2.6 c -0.5,-1.5 -0.9,-3.1 -1.3,-4.7 -0.4,-1.6 -0.8,-3.3 -1.3,-5.1 -0.9,-2.9 -2.2,-5.7 -4,-8.2 -0.4,-0.5 -0.8,-1 -1.1,-1.3 -0.4,-0.4 -0.7,-0.9 -1,-1.4 -0.2,-0.6 -0.1,-9.3 -0.1,-9.8 0,-0.2 0,-1.3 0,-1.3 0,-1.5 -1.1,-0.3 -1.3,1.5 0,0.3 -0.2,2.2 -0.4,3.9 0,0.2 0,0.9 0,1.1 L 182,0.9 c -0.1,-0.4 -1.4,0.4 -1.4,2 0,0.4 -0.7,9.2 -0.7,9.2 0,0 -0.9,-11.3 -0.9,-11.9 0,-0.6 -1.7,0.5 -1.5,2.2 0,0.1 0.5,6.8 0.5,6.8 -0.3,-0.9 -2.6,-6.3 -2.8,-6.9 -0.2,-0.7 -1.3,0.3 -0.6,2.4 0.3,0.8 1.9,5.5 1.9,5.6 -0.1,-0.2 -3.1,-5.5 -3.1,-5.4 -0.6,-1.1 -1.3,0.5 -0.5,2.4 0.3,0.8 2.1,3.9 2.3,4.5 0.2,0.6 0,0.7 -0.1,0.7 -0.1,0.1 -2.5,-2.6 -3.1,-3 -0.5,-0.4 -1.5,-0.7 -0.3,1.8 0.6,1.3 2.5,3.2 2.7,3.6 0,0.1 0,0.2 0,0.4 l -0.1,0.1 -1.1,-1.2 -1.3,-1.2 c -0.2,-0.2 -1,0.2 0.4,2.2 1.4,2.1 3.2,3.8 2.4,3.9 -1.6,0.2 1.8,20.3 8.8,27.5 0.1,0.2 0.2,0.4 0.2,0.5 0,0.1 -0.1,0 -0.2,0 -0.6,-0.2 -1.2,-0.6 -1.7,-1.1 L 181,45.3 c -0.7,-0.6 -3.7,-2.4 -4.2,-2.8 -0.1,-0.1 -1.2,-0.7 -1.8,-0.1 -0.7,0.7 0.1,1.7 0.3,2.1 -0.1,0 -1.6,-0.8 -2,0.1 -0.5,1.4 1.2,3.2 0.6,3.6 -0.5,0.3 -0.9,0.8 -1.1,1.3 -0.6,1.2 -0.5,2.6 0.1,3.8 l -54,13.5 c -3.8,0.9 -23.2,6.1 -34.8,9.2 l -8.6,2.3 -1.1,0.3 C 69,80 59.9,82.3 60.6,87.2 61.3,92 68,92.4 70.8,92.6 l 0.6,0 c 1.5,0.1 21.6,0.8 37.7,1.3 8.7,0.3 16.3,0.5 19.1,0.6 8,0.3 35.4,2.5 41.3,3.3 6.4,0.8 14.3,2.7 16.9,4.8 2,1.5 2.8,2.9 2.5,4.1 -0.3,1.3 -2.6,3.6 -4.8,5.3 -1.7,1.4 -16.8,10.6 -29.8,16.9 -12.7,6.1 -53,21.8 -61,24.4 -2.8,0.9 -8.1,2.7 -14.3,4.7 -11.6,3.8 -26.1,8.6 -29.9,9.7 -5.9,1.7 -24.6,6.4 -29.5,7.6 l -0.3,0.1 c -4.6,1.1 -15.5,3.8 -16.8,6.3 -0.2,0.3 -0.2,0.6 -0.1,0.9 0.4,1 2.5,1.3 5.3,1.3 5,-0.2 10,-0.7 14.9,-1.6 l 0.1,0 c 4.7,-0.7 41.5,-9.9 51.7,-13.2 10.2,-3.3 35.8,-12.4 44.9,-15.8 6.4,-2.4 18.1,-7.6 25.8,-11 2.9,-1.3 5.2,-2.3 6.5,-2.8 4.6,-2 19.8,-9.9 22.3,-11.5 l 1,-0.6 c 3.5,-2.2 10.8,-6.8 14.6,-10 5.8,-5 8.4,-9.5 7.8,-13.8 -0.1,-2.4 -1.5,-4.7 -4.1,-6.8 z"
     id="path11" /><rect
     style="fill:#000000;fill-opacity:1"
     x="196.7"
     y="76.099998"
     width="32"
     height="7.4000001"
     id="rect13" /><rect
     style="fill:#000000;fill-opacity:1"
     x="209"
     y="87.900002"
     width="7.4000001"
     height="23"
     id="rect15" /><polygon
     style="fill:#000000;fill-opacity:1"
     points="310.4,83.5 310.4,83.5 342.4,83.5 342.4,76.1 310.4,76.1 310.4,76.1 "
     id="polygon17" /><rect
     style="fill:#000000;fill-opacity:1"
     x="322.70001"
     y="87.900002"
     width="7.4000001"
     height="23"
     id="rect19" /><rect
     style="fill:#000000;fill-opacity:1"
     x="381.70001"
     y="76.099998"
     width="8.5"
     height="7.4000001"
     id="rect21" /><rect
     style="fill:#000000;fill-opacity:1"
     x="458.20001"
     y="76.099998"
     width="8.8999996"
     height="7.4000001"
     id="rect23" /><rect
     style="fill:#000000;fill-opacity:1"
     x="482.5"
     y="76.099998"
     width="8.5"
     height="7.4000001"
     id="rect25" /><rect
     style="fill:#000000;fill-opacity:1"
     x="521.40002"
     y="76.099998"
     width="8.5"
     height="7.4000001"
     id="rect27" /><rect
     style="fill:#000000;fill-opacity:1"
     x="570.09998"
     y="76.099998"
     width="8.6999998"
     height="7.4000001"
     id="rect29" /><rect
     style="fill:#000000;fill-opacity:1"
     x="594.09998"
     y="76.099998"
     width="8.5"
     height="7.4000001"
     id="rect31" /><polygon
     style="fill:#000000;fill-opacity:1"
     points="578.8,87.9 570.1,87.9 570.1,110.7 578.8,110.7 578.8,97 594.1,97 594.1,110.8 602.6,110.9 602.6,87.9 594.1,87.9 594.1,89.4 578.8,89.4 "
     id="polygon33" /><path
     style="fill:#000000;fill-opacity:1"
     d="m 530.1,87.9 -8.7,0 0,8.7 c 0,2.8 0.3,5 -1.2,5 -2.1,0 -5,-11.8 -5.5,-13.8 l -9,0 c 0.3,1.1 1.3,4.9 2.1,7.5 l 0.6,2 c 1.1,3.3 4.5,13.4 12,13.4 9.8,0 9.6,-7.6 9.6,-7.6 l 0.1,-15.2 z"
     id="path35" /><rect
     style="fill:#000000;fill-opacity:1"
     x="493.89999"
     y="87.900002"
     width="8.6000004"
     height="22.9"
     id="rect37" /><path
     style="fill:#000000;fill-opacity:1"
     d="m 542.8,97.6 0,-9.7 -8.5,0 c 0,1.1 0,7.9 0,10.1 0,10 8.8,12.7 17,12.7 l 15.8,0 0,-8 -16.3,0 c -5.7,0.1 -8,-2.1 -8,-5.1 z"
     id="path39" /><path
     style="fill:#000000;fill-opacity:1"
     d="m 390.2,94.2 0,-6.3 -8.5,0 c 0,1.1 0,8.2 0,9.7 0,9.2 8.5,13.1 17.5,13.1 l 15.4,0 0,-8 -15.4,0 c -6.6,0.1 -9,-2.4 -9,-8.5 z"
     id="path41" /><path
     style="fill:#000000;fill-opacity:1"
     d="m 254.8,76.1 -22.3,0 0,7.4 32.4,0 c -0.4,-2.5 -2.1,-7.4 -10.1,-7.4 z"
     id="path43" /><path
     style="fill:#000000;fill-opacity:1"
     d="m 263,93.2 c 1.3,-0.5 2.1,-1.9 2,-3.3 l 0,-2 -9.3,0 c 0,0 -0.2,1.9 -2.6,1.9 l -12.5,0 0,-1.9 -7.9,0 0,23 7.9,0 0,-13.8 15.2,0 c 1.5,0 1.8,1.1 1.8,2.1 l 0,11.7 8.6,0 0,-13.7 c -0.2,-3.6 -2.8,-3.9 -3.2,-4 z"
     id="path45" /><polygon
     style="fill:#000000;fill-opacity:1"
     points="429.9,102.5 434.6,87.9 424.9,87.9 417.2,110.9 456.4,110.9 448.6,87.9 439.2,87.9 444,102.5 "
     id="polygon47" /><path
     style="fill:#000000;fill-opacity:1"
     d="m 436.9,75.9 c -6.6,0 -9.6,5.1 -10.7,7.7 l 21.1,0 c -0.9,-2.7 -3.8,-7.7 -10.4,-7.7 z"
     id="path49" /><polygon
     style="fill:#000000;fill-opacity:1"
     points="283.9,102.5 288.6,87.9 278.9,87.9 271.2,110.9 310.4,110.9 302.6,87.9 293.1,87.9 298,102.5 "
     id="polygon51" /><path
     style="fill:#000000;fill-opacity:1"
     d="m 290.9,75.9 c -6.6,0 -9.5,5.1 -10.6,7.7 l 21.1,0 c -1,-2.7 -3.9,-7.7 -10.5,-7.7 z"
     id="path53" /><path
     style="fill:#000000;fill-opacity:1"
     d="m 482.5,95.8 c 0,1 -0.5,6.1 -7.7,6.1 -7.1,0 -7.7,-5 -7.7,-6.1 l 0,-7.9 -9,0 0,7.9 c 0,6.1 5.8,15.1 16.6,15.1 10.8,0 16.3,-7.8 16.3,-15.1 l 0,-7.9 -8.5,0 0,7.9 z"
     id="path55" /><path
     style="fill:#000000;fill-opacity:1"
     d="m 502.1,75.8 c -6.1,0 -7.7,5.1 -8.1,7.7 l 20,0 c -1,-2.6 -4,-7.7 -11.9,-7.7 z"
     id="path57" /><path
     style="fill:#000000;fill-opacity:1"
     d="m 548.2,75.9 c -5.7,0 -12.8,1.5 -13.8,7.6 l 32.8,0 0,-7.6 -19,0 z"
     id="path59" /><path
     style="fill:#000000;fill-opacity:1"
     d="m 357.4,123.1 -4.8,12.4 1.7,0 1.4,-3.7 5.3,0 1.3,3.7 1.8,0 -4.8,-12.4 -1.9,0 z m -1.2,7.3 2.1,-5.8 2.1,5.8 -4.2,0 z"
     id="path61" /><path
     style="fill:#000000;fill-opacity:1"
     d="m 382,127.1 c 0,-0.5 -0.1,-1 -0.2,-1.5 -0.2,-0.5 -0.4,-0.9 -0.8,-1.3 -0.4,-0.4 -0.8,-0.7 -1.3,-0.9 -0.6,-0.2 -1.3,-0.4 -2,-0.3 l -5.6,0 0,12.4 2.7,0 0,-4.5 2.9,0 c 0.7,0 1.4,-0.1 2,-0.3 0.5,-0.2 1,-0.5 1.3,-0.9 0.3,-0.4 0.6,-0.8 0.8,-1.3 0.1,-0.4 0.2,-0.9 0.2,-1.4 z m -2.8,1 c -0.1,0.2 -0.3,0.4 -0.5,0.6 -0.2,0.1 -0.5,0.2 -0.8,0.3 -0.3,0 -0.6,0.1 -0.9,0.1 l -2.1,0 0,-3.7 2.1,0 c 0.3,0 0.6,0 0.9,0.1 0.3,0 0.5,0.1 0.8,0.3 0.2,0.1 0.4,0.3 0.5,0.6 0.2,0.4 0.2,1.1 0,1.7 z"
     id="path63" /><path
     style="fill:#000000;fill-opacity:1"
     d="m 386.4,123.1 -4.7,12.4 2.8,0 1,-2.8 4.6,0 0.9,2.8 2.8,0 -4.6,-12.4 -2.8,0 z m -0.3,7.6 1.6,-4.5 1.6,4.5 -3.2,0 z"
     id="path65" /><path
     style="fill:#000000;fill-opacity:1"
     d="m 403.2,130.8 c 0,0.7 -0.1,1.4 -0.6,2 -0.5,0.5 -1.3,0.7 -2,0.7 -0.5,0 -0.9,-0.1 -1.3,-0.2 -0.6,-0.3 -1,-0.8 -1.1,-1.4 -0.1,-0.3 -0.1,-0.7 -0.1,-1 l 0,-7.7 -2.7,0 0,7.7 c -0.1,1.4 0.4,2.8 1.4,3.8 2.4,1.6 5.5,1.6 7.8,0 1,-1 1.5,-2.3 1.4,-3.7 l 0,-7.7 -2.8,0 0,7.5 z"
     id="path67" /><polygon
     style="fill:#000000;fill-opacity:1"
     points="408.9,135.5 417.7,135.5 417.7,133.2 411.6,133.2 411.6,123.1 408.9,123.1 "
     id="polygon69" /><path
     style="fill:#000000;fill-opacity:1"
     d="m 430.9,130.8 2.8,0 c 0,1.5 -1.2,2.7 -2.6,2.7 -0.1,0 -0.2,0 -0.4,0 -0.5,0 -1.1,-0.1 -1.6,-0.4 -0.4,-0.2 -0.7,-0.6 -1,-1 -0.3,-0.4 -0.5,-0.9 -0.6,-1.3 -0.1,-0.5 -0.2,-1 -0.2,-1.5 0,-0.5 0.1,-1.1 0.2,-1.6 0.1,-0.5 0.3,-0.9 0.6,-1.4 0.2,-0.4 0.6,-0.8 1,-1 0.5,-0.3 1,-0.4 1.6,-0.4 0.6,0 1.2,0.2 1.7,0.5 0.5,0.4 0.8,0.9 0.9,1.6 l 2.6,0 c -0.1,-1.3 -0.7,-2.5 -1.8,-3.3 -0.5,-0.4 -1,-0.7 -1.6,-0.8 -0.6,-0.2 -1.2,-0.3 -1.9,-0.3 -0.9,0 -1.8,0.2 -2.6,0.5 -0.7,0.3 -1.4,0.8 -1.9,1.4 -0.5,0.6 -0.9,1.3 -1.2,2.1 -0.3,0.8 -0.4,1.7 -0.4,2.6 0,0.9 0.1,1.7 0.4,2.5 0.3,0.7 0.7,1.4 1.2,2 0.5,0.6 1.2,1.1 1.9,1.4 0.8,0.3 1.7,0.5 2.6,0.5 0.6,0 1.2,-0.1 1.8,-0.4 0.6,-0.3 1.2,-0.7 1.6,-1.3 l 0.3,1.4 1.7,0 0,-6.6 -5.2,0 0.1,2.1 z"
     id="path71" /><rect
     style="fill:#000000;fill-opacity:1"
     x="438.70001"
     y="132.8"
     width="2.7"
     height="2.7"
     id="rect73" /><path
     style="fill:#000000;fill-opacity:1"
     d="m 453,123.1 -4.8,12.4 2.8,0 1,-2.8 4.7,0 0.9,2.8 2.8,0 -4.7,-12.4 -2.7,0 z m -0.3,7.6 1.6,-4.5 1.6,4.5 -3.2,0 z"
     id="path75" /><polygon
     style="fill:#000000;fill-opacity:1"
     points="462,135.5 470.8,135.5 470.8,133.2 464.7,133.2 464.7,123.1 462,123.1 "
     id="polygon77" /><polygon
     style="fill:#000000;fill-opacity:1"
     points="472.9,135.5 481.7,135.5 481.7,133.2 475.6,133.2 475.6,123.1 472.9,123.1 "
     id="polygon79" /><polygon
     style="fill:#000000;fill-opacity:1"
     points="492.5,128 486.5,128 486.5,125.4 493,125.4 493,123.1 483.7,123.1 483.7,135.5 493.2,135.5 493.2,133.2 486.5,133.2 486.5,130.2 492.5,130.2 "
     id="polygon81" /><polygon
     style="fill:#000000;fill-opacity:1"
     points="498.3,123.1 495.5,123.1 495.5,135.5 498.1,135.5 498.1,127.2 498.2,127.2 503.3,135.5 506.1,135.5 506.1,123.1 503.5,123.1 503.5,131.4 503.5,131.4 "
     id="polygon83" /><path
     style="fill:#000000;fill-opacity:1"
     d="m 522,132.2 c -0.2,0.4 -0.4,0.8 -0.7,1.1 -0.3,0.3 -0.7,0.6 -1.1,0.8 -0.5,0.2 -1,0.3 -1.5,0.3 -0.7,0 -1.3,-0.1 -1.9,-0.4 -0.5,-0.3 -1,-0.6 -1.3,-1.1 -0.4,-0.5 -0.6,-1.1 -0.8,-1.6 -0.2,-0.7 -0.2,-1.3 -0.2,-2 0,-0.6 0.1,-1.3 0.2,-1.9 0.2,-0.6 0.4,-1.1 0.8,-1.6 0.3,-0.5 0.8,-0.9 1.3,-1.1 0.6,-0.3 1.2,-0.4 1.9,-0.4 0.8,0 1.6,0.2 2.3,0.7 0.7,0.5 1.1,1.2 1.2,2 l 1.7,0 c -0.1,-0.6 -0.3,-1.2 -0.6,-1.7 -0.3,-0.5 -0.7,-0.9 -1.1,-1.3 -0.5,-0.3 -1,-0.6 -1.5,-0.8 -0.6,-0.2 -1.2,-0.3 -1.9,-0.3 -0.9,0 -1.7,0.2 -2.5,0.5 -0.7,0.3 -1.3,0.8 -1.9,1.4 -0.5,0.6 -0.9,1.3 -1.2,2 -0.3,0.8 -0.4,1.7 -0.4,2.5 0,0.9 0.1,1.7 0.4,2.5 0.2,0.7 0.6,1.4 1.1,2 0.5,0.6 1.1,1 1.8,1.4 0.8,0.3 1.7,0.5 2.5,0.5 1.4,0.1 2.7,-0.4 3.8,-1.3 1,-1 1.5,-2.3 1.6,-3.6 l -1.7,0 c 0,0.5 -0.1,1 -0.3,1.4 z"
     id="path85" /><path
     style="fill:#000000;fill-opacity:1"
     d="m 536.3,124.8 c -0.5,-0.6 -1.1,-1.1 -1.9,-1.4 -1.7,-0.7 -3.5,-0.7 -5.2,0 -0.7,0.3 -1.4,0.8 -1.9,1.4 -0.5,0.6 -0.9,1.3 -1.1,2.1 -0.5,1.6 -0.5,3.3 0,4.9 0.2,0.8 0.6,1.5 1.1,2.1 0.5,0.6 1.1,1.1 1.9,1.4 1.7,0.7 3.5,0.7 5.2,0 0.7,-0.3 1.4,-0.8 1.9,-1.4 0.5,-0.6 0.9,-1.3 1.1,-2.1 0.5,-1.6 0.5,-3.3 0,-4.9 -0.2,-0.8 -0.6,-1.5 -1.1,-2.1 z m -0.4,6.3 c -0.2,0.6 -0.4,1.1 -0.8,1.6 -0.4,0.5 -0.8,0.9 -1.3,1.2 -1.2,0.6 -2.7,0.6 -3.9,0 -0.5,-0.3 -1,-0.7 -1.3,-1.2 -0.4,-0.5 -0.6,-1.1 -0.8,-1.6 -0.3,-1.2 -0.3,-2.5 0,-3.7 0.2,-0.6 0.4,-1.1 0.8,-1.6 0.4,-0.5 0.8,-0.9 1.3,-1.2 1.2,-0.6 2.7,-0.6 3.9,0 0.5,0.3 1,0.7 1.3,1.2 0.4,0.5 0.6,1.1 0.8,1.6 0.3,1.3 0.3,2.5 0,3.7 z"
     id="path87" /><polygon
     style="fill:#000000;fill-opacity:1"
     points="540.4,123.1 540.4,135.5 541.9,135.5 541.9,125.2 542,125.2 545.8,135.5 547.3,135.5 551.2,125.2 551.2,125.2 551.2,135.5 552.8,135.5 552.8,123.1 550.5,123.1 546.5,133.5 542.6,123.1 "
     id="polygon89" /><path
     style="fill:#000000;fill-opacity:1"
     d="m 561.5,123.1 -5.5,0 0,12.4 1.7,0 0,-5.1 3.8,0 c 1,0.1 2.1,-0.3 2.9,-1 1.3,-1.6 1.3,-3.8 0,-5.4 -0.9,-0.7 -1.9,-1 -2.9,-0.9 z m 1.5,5.3 c -0.6,0.4 -1.3,0.6 -2.1,0.6 l -3.2,0 0,-4.5 3.2,0 c 0.7,-0.1 1.5,0.1 2.1,0.6 0.5,0.4 0.7,1.1 0.6,1.7 0.1,0.6 -0.2,1.2 -0.6,1.6 z"
     id="path91" /><path
     style="fill:#000000;fill-opacity:1"
     d="m 570.4,123.1 -4.8,12.4 1.7,0 1.4,-3.7 5.3,0 1.3,3.7 1.8,0 -4.8,-12.4 -1.9,0 z m -1.3,7.3 2.1,-5.8 2.1,5.8 -4.2,0 z"
     id="path93" /><polygon
     style="fill:#000000;fill-opacity:1"
     points="580.5,123.1 578.8,123.1 578.8,135.5 580.3,135.5 580.3,125.5 580.4,125.5 586.9,135.5 588.7,135.5 588.7,123.1 587.1,123.1 587.1,133.1 587.1,133.1 "
     id="polygon95" /><polygon
     style="fill:#000000;fill-opacity:1"
     points="590.6,123.1 595.4,130.4 595.4,135.5 597,135.5 597,130.4 601.8,123.1 599.9,123.1 596.3,129 592.5,123.1 "
     id="polygon97" /><path
     style="fill:#000000;fill-opacity:1"
     d="m 1,176.6 c 31.4,-27.1 80.3,-49.2 162,-54.7 l 11.8,-7.1 C 90.2,119.3 27.5,143.4 0.2,176 c -0.6,0.8 0,1.3 0.8,0.6 z"
     id="path99" /><path
     style="fill:#000000;fill-opacity:1"
     d="m 407.1,176.1 c -30.3,-36.2 -103.9,-62 -203.4,-62 -2.5,0 -5,0 -7.5,0 l -7,6.6 c 4.7,-0.1 9.6,-0.2 14.5,-0.2 107.2,0 166.5,24.8 202.8,56.1 0.6,0.7 1.2,0.2 0.6,-0.5 z"
     id="path101" /></svg>
